{
  "accessors": [
    {
      "bufferView": 2,
      "componentType": 5126,
      "count": 124,
      "max": [
        1.3208320140838623,
        3.9844887256622314,
        1.7984035015106201
      ],
      "min": [
        -4.995298385620117,
        0.16307592391967773,
        -1.2088937759399414
      ],
      "type": "VEC3"
    },
    {
      "bufferView": 2,
      "byteOffset": 1488,
      "componentType": 5126,
      "count": 124,
      "max": [
        0.9931944608688354,
        0.9876885414123535,
        1.0
      ],
      "min": [
        -0.9876883029937744,
        -0.9876883625984192,
        -1.0
      ],
      "type": "VEC3"
    },
    {
      "bufferView": 1,
      "componentType": 5126,
      "count": 124,
      "max": [
        1.5011745691299438,
        1.006568431854248
      ],
      "min": [
        -0.528735339641571,
        -0.008386199362576008
      ],
      "type": "VEC2"
    },
    {
      "bufferView": 0,
      "componentType": 5125,
      "count": 234,
      "type": "SCALAR"
    },
    {
      "bufferView": 2,
      "byteOffset": 2976,
      "componentType": 5126,
      "count": 90,
      "max": [
        257.0375671386719,
        189.21583557128906,
        0.5120968222618103
      ],
      "min": [
        -260.4112548828125,
        0.6785788536071777,
        0.0
      ],
      "type": "VEC3"
    },
    {
      "bufferView": 2,
      "byteOffset": 4056,
      "componentType": 5126,
      "count": 90,
      "max": [
        0.0,
        0.0,
        1.0
      ],
      "min": [
        0.0,
        -0.004669423680752516,
        0.9999891519546509
      ],
      "type": "VEC3"
    },
    {
      "bufferView": 1,
      "byteOffset": 992,
      "componentType": 5126,
      "count": 90,
      "max": [
        4.176375865936279,
        0.3236228823661804
      ],
      "min": [
        -2.8990280628204346,
        -0.010318636894226074
      ],
      "type": "VEC2"
    },
    {
      "bufferView": 0,
      "byteOffset": 936,
      "componentType": 5125,
      "count": 432,
      "type": "SCALAR"
    },
    {
      "bufferView": 2,
      "byteOffset": 5136,
      "componentType": 5126,
      "count": 203,
      "max": [
        684.56689453125,
        258.14569091796875,
        286.24871826171875
      ],
      "min": [
        -579.9387817382813,
        -74.67955017089844,
        -3.145317554473877
      ],
      "type": "VEC3"
    },
    {
      "bufferView": 2,
      "byteOffset": 7572,
      "componentType": 5126,
      "count": 203,
      "max": [
        0.9927031397819519,
        1.0,
        1.0
      ],
      "min": [
        -0.9978650212287903,
        -1.0,
        -0.980586588382721
      ],
      "type": "VEC3"
    },
    {
      "bufferView": 1,
      "byteOffset": 1712,
      "componentType": 5126,
      "count": 203,
      "max": [
        1.1356524229049683,
        0.9956331253051758
      ],
      "min": [
        -0.1329013705253601,
        -0.024736464023590088
      ],
      "type": "VEC2"
    },
    {
      "bufferView": 0,
      "byteOffset": 2664,
      "componentType": 5125,
      "count": 702,
      "type": "SCALAR"
    },
    {
      "bufferView": 2,
      "byteOffset": 10008,
      "componentType": 5126,
      "count": 6461,
      "max": [
        10.073925018310547,
        64.16856384277344,
        12.159467697143555
      ],
      "min": [
        -11.825749397277832,
        40.77606201171875,
        -12.232009887695313
      ],
      "type": "VEC3"
    },
    {
      "bufferView": 2,
      "byteOffset": 87540,
      "componentType": 5126,
      "count": 6461,
      "max": [
        1.0,
        1.0,
        1.0
      ],
      "min": [
        -1.0,
        -1.0,
        -1.0
      ],
      "type": "VEC3"
    },
    {
      "bufferView": 1,
      "byteOffset": 3336,
      "componentType": 5126,
      "count": 6461,
      "max": [
        0.9982937574386597,
        0.9958017468452454
      ],
      "min": [
        0.12583279609680176,
        0.279280424118042
      ],
      "type": "VEC2"
    },
    {
      "bufferView": 0,
      "byteOffset": 5472,
      "componentType": 5125,
      "count": 30483,
      "type": "SCALAR"
    },
    {
      "bufferView": 2,
      "byteOffset": 165072,
      "componentType": 5126,
      "count": 2844,
      "max": [
        9.640329360961914,
        64.27774047851563,
        10.801483154296875
      ],
      "min": [
        -1.7235195636749268,
        43.12166976928711,
        -10.795654296875
      ],
      "type": "VEC3"
    },
    {
      "bufferView": 2,
      "byteOffset": 199200,
      "componentType": 5126,
      "count": 2844,
      "max": [
        1.0,
        1.0,
        1.0
      ],
      "min": [
        -1.0,
        -1.0,
        -1.0
      ],
      "type": "VEC3"
    },
    {
      "bufferView": 1,
      "byteOffset": 55024,
      "componentType": 5126,
      "count": 2844,
      "max": [
        0.9060519933700562,
        0.9991542100906372
      ],
      "min": [
        0.008779165334999561,
        0.0
      ],
      "type": "VEC2"
    },
    {
      "bufferView": 0,
      "byteOffset": 127404,
      "componentType": 5125,
      "count": 8490,
      "type": "SCALAR"
    }
  ],
  "asset": {
    "extras": {
      "author": "Seafoam (https://sketchfab.com/seafoam)",
      "license": "CC-BY-4.0 (http://creativecommons.org/licenses/by/4.0/)",
      "source": "https://sketchfab.com/3d-models/hotel-adriano-1h-30min-speed-model-fa280f5f0ccd4ce3a5f025a5e69883b3",
      "title": "Hotel Adriano - 1h 30min speed model"
    },
    "generator": "Sketchfab-12.66.0",
    "version": "2.0"
  },
  "bufferViews": [
    {
      "buffer": 0,
      "byteLength": 161364,
      "name": "floatBufferViews",
      "target": 34963
    },
    {
      "buffer": 0,
      "byteLength": 77776,
      "byteOffset": 161364,
      "byteStride": 8,
      "name": "floatBufferViews",
      "target": 34962
    },
    {
      "buffer": 0,
      "byteLength": 233328,
      "byteOffset": 239140,
      "byteStride": 12,
      "name": "floatBufferViews",
      "target": 34962
    }
  ],
  "buffers": [
    {
      "byteLength": 472468,
      "uri": "scene.bin"
    }
  ],
  "extensionsUsed": [
    "KHR_materials_unlit"
  ],
  "images": [
    {
      "uri": "textures/AdriaticFront_baseColor.jpeg"
    },
    {
      "uri": "textures/AdriaticBack.001_baseColor.jpeg"
    },
    {
      "uri": "textures/AdriaticMid_baseColor.jpeg"
    }
  ],
  "materials": [
    {
      "doubleSided": true,
      "extensions": {
        "KHR_materials_unlit": {}
      },
      "name": "AdriaticFront",
      "pbrMetallicRoughness": {
        "baseColorTexture": {
          "index": 0
        },
        "metallicFactor": 0.0
      }
    },
    {
      "alphaMode": "BLEND",
      "doubleSided": true,
      "extensions": {
        "KHR_materials_unlit": {}
      },
      "name": "AdriaticBack.001",
      "pbrMetallicRoughness": {
        "baseColorFactor": [
          1.0,
          1.0,
          1.0,
          0.8650946378952873
        ],
        "baseColorTexture": {
          "index": 1
        },
        "metallicFactor": 0.0
      }
    },
    {
      "doubleSided": true,
      "extensions": {
        "KHR_materials_unlit": {}
      },
      "name": "AdriaticBack",
      "pbrMetallicRoughness": {
        "baseColorTexture": {
          "index": 1
        },
        "metallicFactor": 0.0
      }
    },
    {
      "doubleSided": true,
      "extensions": {
        "KHR_materials_unlit": {}
      },
      "name": "AdriaticMid",
      "pbrMetallicRoughness": {
        "baseColorTexture": {
          "index": 2
        },
        "metallicFactor": 0.0
      }
    }
  ],
  "meshes": [
    {
      "name": "Cylinder_AdriaticFront_0",
      "primitives": [
        {
          "attributes": {
            "NORMAL": 1,
            "POSITION": 0,
            "TEXCOORD_0": 2
          },
          "indices": 3,
          "material": 0,
          "mode": 4
        }
      ]
    },
    {
      "name": "Plane_AdriaticBack.001_0",
      "primitives": [
        {
          "attributes": {
            "NORMAL": 5,
            "POSITION": 4,
            "TEXCOORD_0": 6
          },
          "indices": 7,
          "material": 1,
          "mode": 4
        }
      ]
    },
    {
      "name": "Plane.001_AdriaticBack_0",
      "primitives": [
        {
          "attributes": {
            "NORMAL": 9,
            "POSITION": 8,
            "TEXCOORD_0": 10
          },
          "indices": 11,
          "material": 2,
          "mode": 4
        }
      ]
    },
    {
      "name": "Plane.003_AdriaticFront_0",
      "primitives": [
        {
          "attributes": {
            "NORMAL": 13,
            "POSITION": 12,
            "TEXCOORD_0": 14
          },
          "indices": 15,
          "material": 0,
          "mode": 4
        }
      ]
    },
    {
      "name": "Plane.003_AdriaticMid_0",
      "primitives": [
        {
          "attributes": {
            "NORMAL": 17,
            "POSITION": 16,
            "TEXCOORD_0": 18
          },
          "indices": 19,
          "material": 3,
          "mode": 4
        }
      ]
    }
  ],
  "nodes": [
    {
      "children": [
        1
      ],
      "matrix": [
        2.127659559249878,
        0.0,
        0.0,
        0.0,
        0.0,
        4.724353262486054e-16,
        -2.127659559249878,
        0.0,
        0.0,
        2.127659559249878,
        4.724353262486054e-16,
        0.0,
        0.0,
        0.0,
        0.0,
        1.0
      ],
      "name": "Sketchfab_model"
    },
    {
      "children": [
        2
      ],
      "matrix": [
        0.009999999776482582,
        0.0,
        0.0,
        0.0,
        0.0,
        0.0,
        0.009999999776482582,
        0.0,
        0.0,
        -0.009999999776482582,
        0.0,
        0.0,
        0.0,
        0.0,
        0.0,
        1.0
      ],
      "name": "5bdb92356c0549ba96ab5e1de419997f.fbx"
    },
    {
      "children": [
        3
      ],
      "name": "Object_2"
    },
    {
      "children": [
        4,
        7,
        9,
        11,
        13,
        15
      ],
      "name": "RootNode"
    },
    {
      "children": [
        5
      ],
      "name": "Sun",
      "rotation": [
        0.41405847668647766,
        0.08562155812978745,
        0.2543516457080841,
        0.8697872161865234
      ],
      "scale": [
        100.0,
        100.0,
        99.99999237060547
      ],
      "translation": [
        760.1362915039063,
        1511.870361328125,
        -1209.5531005859375
      ]
    },
    {
      "children": [
        6
      ],
      "matrix": [
        1.0,
        0.0,
        0.0,
        0.0,
        0.0,
        2.220446049250313e-16,
        1.0,
        0.0,
        0.0,
        -1.0,
        2.220446049250313e-16,
        0.0,
        0.0,
        0.0,
        0.0,
        1.0
      ],
      "name": "Object_5"
    },
    {
      "name": "Object_6"
    },
    {
      "children": [
        8
      ],
      "name": "Camera.001",
      "rotation": [
        0.018761541694402695,
        0.7255658507347107,
        0.01778475008904934,
        0.6876670122146606
      ],
      "scale": [
        99.99999237060547,
        100.0,
        99.99999237060547
      ],
      "translation": [
        -6.848704814910889,
        53.801971435546875,
        301.5951843261719
      ]
    },
    {
      "name": "Object_8"
    },
    {
      "children": [
        10
      ],
      "name": "Cylinder",
      "rotation": [
        -0.7071068286895752,
        0.0,
        0.0,
        0.7071067094802856
      ],
      "scale": [
        100.0,
        100.0,
        100.0
      ],
      "translation": [
        5.324670791625977,
        32.30587387084961,
        272.43292236328125
      ]
    },
    {
      "mesh": 0,
      "name": "Cylinder_AdriaticFront_0"
    },
    {
      "children": [
        12
      ],
      "name": "Plane",
      "rotation": [
        -0.7071068286895752,
        0.0,
        0.0,
        0.7071067094802856
      ],
      "scale": [
        100.0,
        100.0,
        100.0
      ]
    },
    {
      "mesh": 1,
      "name": "Plane_AdriaticBack.001_0"
    },
    {
      "children": [
        14
      ],
      "name": "Plane.001",
      "rotation": [
        1.9993048994138007e-08,
        -1.8626448161640496e-09,
        -4.157810038251917e-26,
        1.0
      ],
      "scale": [
        38.8319206237793,
        38.8319206237793,
        38.8319206237793
      ],
      "translation": [
        -3150.2392578125,
        902.1928100585938,
        -18949.87890625
      ]
    },
    {
      "mesh": 2,
      "name": "Plane.001_AdriaticBack_0"
    },
    {
      "children": [
        16,
        17
      ],
      "name": "Plane.003",
      "rotation": [
        -0.7071068286895752,
        0.0,
        0.0,
        0.7071067094802856
      ],
      "scale": [
        100.0,
        100.0,
        100.0
      ]
    },
    {
      "mesh": 3,
      "name": "Plane.003_AdriaticFront_0"
    },
    {
      "mesh": 4,
      "name": "Plane.003_AdriaticMid_0"
    }
  ],
  "samplers": [
    {
      "magFilter": 9729,
      "minFilter": 9987,
      "wrapS": 10497,
      "wrapT": 10497
    }
  ],
  "scene": 0,
  "scenes": [
    {
      "name": "Sketchfab_Scene",
      "nodes": [
        0
      ]
    }
  ],
  "textures": [
    {
      "sampler": 0,
      "source": 0
    },
    {
      "sampler": 0,
      "source": 1
    },
    {
      "sampler": 0,
      "source": 2
    }
  ]
}
